<?xml version="1.0" encoding="utf-8"?>
<!-- Generator: Adobe Illustrator 27.4.0, SVG Export Plug-In . SVG Version: 6.00 Build 0)  -->
<svg version="1.1" id="Layer_1" xmlns="http://www.w3.org/2000/svg" xmlns:xlink="http://www.w3.org/1999/xlink" x="0px" y="0px"
	 viewBox="0 0 523.4 135.2" style="enable-background:new 0 0 523.4 135.2; height: 100px; width: auto;" xml:space="preserve">
<style type="text/css">
	.st0{fill:#F3C300;}
	.st1{fill:#003057;}
	.st2{fill:#FFFFFF;}
</style>
<g>
	<rect x="124.8" y="82" class="st0" width="373.2" height="2.3"/>
</g>
<g>
	<path class="st1" d="M135.1,112.7c-6.4,0-10.2-4.7-10.2-10.7c0-6.3,4.4-11.3,11-11.3c6.3,0,10.2,4.7,10.2,10.7
		C146,107.5,141.7,112.7,135.1,112.7z M135,93.9c-3.2,0-5.6,2.6-5.6,7.1c0,5.1,2.4,8.4,6.4,8.4c3.2,0,5.6-2.7,5.6-7.2
		C141.4,97.5,139.1,93.9,135,93.9z"/>
	<path class="st1" d="M160.5,112.2h-12.5c0,0,1.3-0.1,1.3-3.4V97.1c0-3-1.4-3.1-1.4-3.1h6.7c0,0-1.5,0.1-1.5,3.1v12.6h3.8
		c2.3,0,3.5-1.2,4.5-3.5L160.5,112.2z"/>
	<path class="st1" d="M171.1,112.2h-8c0,0,1.5-0.1,1.5-3.4V97.1c0-3-1.7-3.1-1.7-3.1h8.5c5.7,0,9.4,3.6,9.4,8.9
		C180.7,107.7,177.9,112.2,171.1,112.2z M170.4,96.5h-1.9v13.2h2.7c3.7,0,5.4-3.2,5.4-6.5C176.6,99.3,174.6,96.5,170.4,96.5z"/>
	<path class="st1" d="M198,112.2h-9.2c0,0,1.8-0.1,1.8-3.9V94.7c0-3.4-2-3.5-2-3.5h9.8c6.6,0,10.9,4.2,10.9,10.3
		C209.1,107,205.8,112.2,198,112.2z M197.2,94H195v15.3h3.1c4.3,0,6.2-3.7,6.2-7.6C204.4,97.2,202.1,94,197.2,94z"/>
	<path class="st1" d="M220.2,112.6c-5.5,0-8.9-4.1-8.9-9.2c0-5.4,3.8-9.8,9.5-9.8c5.5,0,8.8,4.1,8.8,9.2
		C229.6,108.2,225.9,112.6,220.2,112.6z M220.1,96.4c-2.8,0-4.9,2.2-4.9,6.2c0,4.4,2.1,7.2,5.5,7.2c2.8,0,4.9-2.3,4.9-6.2
		C225.6,99.5,223.7,96.4,220.1,96.4z"/>
	<path class="st1" d="M246.1,112.2c0,0,1.3-0.1,1.3-3.1V98.8l-6.1,13.8L235,98.8V109c0,3.1,1.7,3.2,1.7,3.2h-6.3
		c0,0,1.7-0.1,1.7-3.3V97c0-2.9-1.8-2.9-1.8-2.9h6.7l4.8,11l4.8-11h6c0,0-1.5,0.1-1.5,3v12.1c0,3,1.5,3.1,1.5,3.1
		S246.1,112.2,246.1,112.2z"/>
	<path class="st1" d="M254.4,112.2c0,0,1.4-0.1,1.4-2.8V97c0-2.8-1.4-2.9-1.4-2.9h6.8c0,0-1.4,0.1-1.4,2.9v12.4
		c0,2.8,1.4,2.8,1.4,2.8L254.4,112.2L254.4,112.2z"/>
	<path class="st1" d="M280.5,97.1v15.2h-2.8c0,0-0.7-2.1-2.9-4.8l-6.1-7.4v9.3c0,2.9,1.7,3,1.7,3h-6.1c0,0,1.4-0.1,1.4-3v-12
		c0-2.1-2.3-3.1-2.5-3.2h5.8l8.6,10.7v-7.7c0-2.9-1.5-3-1.5-3h6C282,94.1,280.5,94.1,280.5,97.1z"/>
	<path class="st1" d="M283.7,112.2c0,0,1.4-0.1,1.4-2.8V97c0-2.8-1.4-2.9-1.4-2.9h6.8c0,0-1.4,0.1-1.4,2.9v12.4
		c0,2.8,1.4,2.8,1.4,2.8L283.7,112.2L283.7,112.2z"/>
	<path class="st1" d="M301.2,112.6c-5.5,0-8.9-4.1-8.9-9.2c0-5.4,3.8-9.8,9.5-9.8c5.5,0,8.8,4.1,8.8,9.2
		C310.6,108.2,307,112.6,301.2,112.6z M301.2,96.4c-2.8,0-4.9,2.2-4.9,6.2c0,4.4,2.1,7.2,5.5,7.2c2.8,0,4.9-2.3,4.9-6.2
		C306.7,99.5,304.7,96.4,301.2,96.4z"/>
	<path class="st1" d="M329.1,97.1v15.2h-2.8c0,0-0.7-2.1-2.9-4.8l-6.1-7.4v9.3c0,2.9,1.7,3,1.7,3h-6.1c0,0,1.4-0.1,1.4-3v-12
		c0-2.1-2.3-3.1-2.5-3.2h5.8l8.6,10.7v-7.7c0-2.9-1.5-3-1.5-3h6C330.5,94.1,329.1,94.1,329.1,97.1z"/>
	<path class="st1" d="M356.6,94.7v9.9c0,5.7-3.1,8-8.2,8c-6,0-8.6-2.6-8.6-7.7V94.7c0-3.5-1.7-3.5-1.7-3.5h7.9c0,0-1.7,0.1-1.7,3.4
		v10.2c0,3.5,1.4,4.8,4.4,4.8c3,0,4.2-1.6,4.2-4.8V94.7c0-3.4-1.9-3.5-1.9-3.5h7.5C358.4,91.2,356.6,91.2,356.6,94.7z"/>
	<path class="st1" d="M376.6,97.1v15.2h-2.8c0,0-0.7-2.1-2.9-4.8l-6.1-7.4v9.3c0,2.9,1.7,3,1.7,3h-6.1c0,0,1.4-0.1,1.4-3v-12
		c0-2.1-2.3-3.1-2.5-3.2h5.8l8.6,10.7v-7.7c0-2.9-1.5-3-1.5-3h6C378,94.1,376.6,94.1,376.6,97.1z"/>
	<path class="st1" d="M379.8,112.2c0,0,1.4-0.1,1.4-2.8V97c0-2.8-1.4-2.9-1.4-2.9h6.8c0,0-1.4,0.1-1.4,2.9v12.4
		c0,2.8,1.4,2.8,1.4,2.8L379.8,112.2L379.8,112.2z"/>
	<path class="st1" d="M404.7,97.5l-5.8,14.7h-2.8l-5.9-14.8c-1.3-3.2-2.6-3.3-2.6-3.3h7.4c0,0-1.2,0.1-1.2,1.2
		c0,0.4,0.2,0.8,0.5,1.5l3.8,9.6l3.7-9.7c0.2-0.5,0.3-0.9,0.3-1.3c0-1.2-1.2-1.3-1.2-1.3h6.4C407.3,94.1,406,94.1,404.7,97.5z"/>
	<path class="st1" d="M421,112.2h-12.5c0,0,1.5-0.1,1.5-3.2V97.1c0-2.9-1.8-3-1.8-3h12.5v5.2c-0.2-0.9-0.8-2.7-3.2-2.7h-3.5v5.3h3.1
		c2,0,2.1-1.4,2.1-1.4v5.3c0,0-0.1-1.4-2.1-1.4h-3.1v5.4l3.8,0c2.2,0,3.4-0.9,4.2-3L421,112.2z"/>
	<path class="st1" d="M434,112.2l-3-5.6c-0.8-1.5-1.1-1.8-1.7-1.8h-0.5v4.3c0,3,1.5,3,1.5,3h-6.7c0,0,1.5-0.1,1.5-3v-12
		c0-3-1.7-3.1-1.7-3.1h8c4.3,0,6.5,2.6,6.5,5.3c0,2.3-1.5,4.6-4.5,4.9c0.5,0.2,0.9,0.7,1.4,1.6l2.5,4.3c1.1,1.9,2.5,2,2.7,2
		C439.9,112.2,434,112.2,434,112.2z M430.7,96.5h-1.9v6.1h1.9c2.3,0,3.2-1.5,3.2-3.1C433.9,97.9,432.8,96.5,430.7,96.5z"/>
	<path class="st1" d="M446.3,112.6c-2,0-3.9-0.5-5.2-1.4v-5.8c0.9,3.2,3.2,4.5,5.3,4.5c1.6,0,2.9-0.8,2.9-2.1c0-1.9-2.2-2.7-4.3-3.8
		c-1.9-1-3.8-2.3-3.8-4.9c0-3.3,2.6-5.4,6.3-5.4c1.7,0,3.3,0.5,4.2,1.2v4.8c-0.8-2.4-2.7-3.4-4.5-3.4c-1.8,0-2.6,0.9-2.6,2
		c0,1.5,1.6,2.2,3.4,3.1c2.3,1.1,4.9,2.4,4.9,5.8C453,110.7,450.1,112.6,446.3,112.6z"/>
	<path class="st1" d="M454.9,112.2c0,0,1.4-0.1,1.4-2.8V97c0-2.8-1.4-2.9-1.4-2.9h6.8c0,0-1.4,0.1-1.4,2.9v12.4
		c0,2.8,1.4,2.8,1.4,2.8L454.9,112.2L454.9,112.2z"/>
	<path class="st1" d="M475.6,96.5h-2.3v12.6c0,3,1.4,3.1,1.4,3.1h-6.8c0,0,1.4,0,1.4-3.1V96.5h-2.4c-2,0-3,0.2-3.8,2.6l0.4-5.1H479
		l0.4,5.1C478.5,96.8,477.7,96.5,475.6,96.5z"/>
	<path class="st1" d="M495.5,97.2l-4.4,7.3v4.6c0,3,1.4,3.1,1.4,3.1h-6.8c0,0,1.5-0.1,1.5-3.1v-4.4l-4.3-7.5
		c-1.7-3.1-2.9-3.1-2.9-3.1h7.4c0,0-0.9,0.1-0.9,1c0,0.4,0.2,1.1,0.7,2l2.6,4.5l2.3-4c0.7-1.2,1-1.9,1-2.4c0-1-0.8-1-0.8-1h6
		C498.2,94.1,497.2,94.2,495.5,97.2z"/>
	<g>
		<path class="st1" d="M496.8,107v0.8h-1.5v4h-1v-4h-1.5V107H496.8z M502,111.8l-0.2-2.8c0-0.4,0-0.8,0-1.3h0
			c-0.1,0.4-0.3,1-0.4,1.4l-0.9,2.7h-1l-0.9-2.7c-0.1-0.4-0.2-0.9-0.3-1.4h0c0,0.4,0,0.9,0,1.3l-0.2,2.8h-0.9l0.4-4.8h1.4l0.8,2.3
			c0.1,0.4,0.2,0.7,0.3,1.2h0c0.1-0.4,0.2-0.8,0.3-1.2l0.8-2.4h1.4l0.4,4.8L502,111.8L502,111.8z"/>
	</g>
</g>
<g>
	<path class="st1" d="M150.2,73c-5.2,0-9.8-0.9-13.6-2.8s-6.7-4.8-8.8-8.6c-2-3.9-3-8.7-3-14.6c0-5.9,1-10.8,3-14.6
		c2-3.8,5-6.7,8.8-8.6c3.8-1.9,8.3-2.8,13.6-2.8c5.3,0,9.8,0.9,13.6,2.8c3.8,1.9,6.7,4.7,8.7,8.6s3,8.7,3,14.6c0,5.9-1,10.7-3,14.6
		s-4.9,6.7-8.7,8.6C160,72,155.4,73,150.2,73z M150.2,64.9c2.5,0,4.8-0.4,6.7-1.1c1.9-0.7,3.6-1.8,4.9-3.3c1.3-1.4,2.3-3.2,3-5.3
		c0.7-2.1,1-4.6,1-7.4v-1.6c0-2.8-0.3-5.3-1-7.5c-0.7-2.2-1.7-4-3-5.4c-1.3-1.4-2.9-2.5-4.9-3.3s-4.2-1.1-6.7-1.1
		c-2.5,0-4.8,0.4-6.7,1.1c-1.9,0.7-3.6,1.8-4.9,3.3c-1.3,1.4-2.3,3.2-3,5.4c-0.7,2.2-1,4.6-1,7.5v1.6c0,2.8,0.3,5.2,1,7.4
		s1.6,3.9,3,5.3s2.9,2.5,4.9,3.3C145.4,64.5,147.6,64.9,150.2,64.9z"/>
	<path class="st1" d="M183,72.1V21.8h20.2c5.1,0,9.4,0.9,13.1,2.7s6.4,4.6,8.4,8.2c1.9,3.7,2.9,8.4,2.9,14.2c0,5.7-1,10.4-2.9,14.1
		c-2,3.7-4.7,6.5-8.4,8.3c-3.6,1.8-8,2.7-13.1,2.7L183,72.1L183,72.1z M192.5,64h10.6c2.4,0,4.4-0.3,6.2-1c1.8-0.7,3.3-1.7,4.5-3
		c1.2-1.3,2.1-3,2.8-5.1c0.6-2,0.9-4.4,0.9-7.1v-1.5c0-2.7-0.3-5.1-0.9-7.2c-0.6-2-1.6-3.7-2.8-5.1c-1.2-1.3-2.7-2.4-4.5-3
		c-1.8-0.7-3.9-1-6.2-1h-10.6V64z"/>
	<path class="st1" d="M255.7,73c-4.4,0-8.2-0.7-11.4-2.1c-3.2-1.4-5.6-3.6-7.3-6.5c-1.7-2.9-2.5-6.5-2.5-10.9V21.8h9.5v31.4
		c0,3.9,1,6.8,3,8.8c2,2,4.9,3,8.6,3c3.7,0,6.6-1,8.7-3s3.1-4.9,3.1-8.8V21.8h9.5v31.7c0,4.3-0.9,8-2.6,10.9
		c-1.7,2.9-4.1,5.1-7.3,6.5C263.9,72.3,260.1,73,255.7,73z"/>
	<path class="st1" d="M314.7,73c-7.8,0-13.8-2.1-18.1-6.3s-6.5-10.8-6.5-19.8c0-5.9,1-10.8,3-14.6c2-3.8,5-6.7,8.8-8.6
		c3.8-1.9,8.4-2.8,13.8-2.8c3.2,0,6.2,0.4,9.1,1.1c2.8,0.7,5.3,1.9,7.5,3.3s3.9,3.4,5.1,5.6c1.2,2.2,1.8,4.9,1.8,8h-9.8
		c0-1.6-0.4-3-1.1-4.3s-1.7-2.3-2.9-3.1c-1.2-0.9-2.7-1.5-4.3-1.9c-1.6-0.4-3.3-0.6-5.1-0.6c-2.7,0-5,0.4-7.1,1.1
		c-2,0.7-3.7,1.8-5.1,3.2c-1.4,1.4-2.4,3.2-3,5.4c-0.7,2.2-1,4.7-1,7.5v1.5c0,4,0.6,7.2,1.7,9.8c1.1,2.5,2.8,4.4,5.1,5.6
		s5.1,1.8,8.5,1.8c2.9,0,5.4-0.4,7.6-1.3c2.2-0.9,3.9-2.2,5.1-3.8s1.9-3.8,1.9-6.2v-0.5h-16v-7.9h25.6v27h-6.8l-0.8-5.6
		c-1.5,1.5-3,2.7-4.7,3.6s-3.5,1.7-5.5,2.1C319.5,72.7,317.3,73,314.7,73z"/>
	<path class="st1" d="M347.9,72.1v-53h8.9v53H347.9z"/>
	<path class="st1" d="M382.1,73c-4.2,0-7.7-0.7-10.6-2.2c-2.8-1.4-5-3.7-6.4-6.6c-1.4-3-2.1-6.8-2.1-11.4c0-4.6,0.7-8.4,2.1-11.4
		c1.4-3,3.5-5.2,6.4-6.6c2.8-1.4,6.4-2.2,10.6-2.2c4.2,0,7.8,0.7,10.6,2.2s4.9,3.6,6.3,6.6c1.4,3,2.1,6.8,2.1,11.4
		c0,4.6-0.7,8.4-2.1,11.4c-1.4,3-3.5,5.2-6.3,6.6C389.9,72.2,386.3,73,382.1,73z M382.1,65.6c2.4,0,4.2-0.4,5.7-1.4
		c1.4-0.9,2.5-2.3,3.1-4.1c0.7-1.8,1-4.1,1-6.8v-1c0-2.7-0.3-5-1-6.8c-0.7-1.8-1.7-3.2-3.1-4.1c-1.4-0.9-3.3-1.4-5.7-1.4
		c-2.4,0-4.2,0.5-5.7,1.4c-1.4,0.9-2.5,2.3-3.1,4.1c-0.7,1.8-1,4.1-1,6.8v1c0,2.7,0.3,5,1,6.8c0.7,1.8,1.7,3.2,3.1,4.1
		C377.9,65.2,379.8,65.6,382.1,65.6z"/>
	<path class="st1" d="M427.7,73c-2.5,0-4.8-0.5-6.8-1.5c-2-1-3.7-2.5-5-4.5h-0.5l-0.7,5.1h-7.4v-53h8.9V38h0.4
		c0.8-1.2,1.7-2.2,2.9-3c1.1-0.8,2.4-1.4,3.9-1.8c1.5-0.4,3.1-0.6,4.8-0.6c2.9,0,5.4,0.7,7.7,2.1c2.2,1.4,4,3.6,5.2,6.6
		c1.3,3,1.9,6.8,1.9,11.4c0,4.7-0.6,8.5-1.9,11.5s-3,5.2-5.3,6.6C433.6,72.3,430.9,73,427.7,73z M424.9,65.3c2.2,0,4-0.4,5.2-1.3
		c1.3-0.8,2.2-2.2,2.8-3.9s0.8-4,0.8-6.7v-1c0-2.7-0.3-5-0.8-6.8s-1.5-3.1-2.8-4c-1.3-0.8-3-1.3-5.2-1.3c-1.5,0-2.8,0.3-3.9,0.8
		s-2,1.3-2.7,2.3s-1.2,2.3-1.6,3.8c-0.3,1.5-0.5,3.2-0.5,5.1v1c0,2.5,0.3,4.7,0.9,6.5c0.6,1.8,1.6,3.1,2.9,4
		C421.3,64.8,422.9,65.3,424.9,65.3z"/>
	<path class="st1" d="M459.2,73c-1.1,0-2.3-0.1-3.7-0.4c-1.4-0.3-2.7-0.8-4-1.5s-2.4-1.8-3.2-3.3c-0.8-1.4-1.2-3.3-1.2-5.7
		c0-2.6,0.6-4.8,1.8-6.6s2.8-3.1,5-4.1s4.7-1.7,7.6-2.1c3-0.4,6.2-0.6,9.7-0.6v-3.2c0-1.1-0.2-2.1-0.5-3c-0.3-0.9-1-1.6-1.9-2.1
		s-2.3-0.8-4.1-0.8s-3.2,0.2-4.2,0.7s-1.7,1-2.1,1.6c-0.4,0.6-0.6,1.3-0.6,2v1H449c0-0.2-0.1-0.5-0.1-0.7c0-0.2,0-0.5,0-0.9
		c0-2.2,0.7-4.1,2-5.7c1.3-1.6,3.1-2.8,5.5-3.7c2.4-0.8,5.1-1.3,8.1-1.3c3.5,0,6.4,0.5,8.7,1.5c2.3,1,4,2.4,5.1,4.2s1.7,4,1.7,6.6
		v18.2c0,0.9,0.3,1.6,0.8,2s1.1,0.6,1.8,0.6h2.4v6.2c-0.5,0.2-1.2,0.4-2.1,0.7s-2.1,0.4-3.5,0.4c-1.3,0-2.4-0.2-3.4-0.6
		s-1.9-1-2.5-1.8c-0.7-0.8-1.2-1.7-1.5-2.8h-0.4c-0.8,1-1.8,1.9-3,2.8s-2.5,1.4-4,1.9C463,72.8,461.2,73,459.2,73z M461.9,65.6
		c1.5,0,2.8-0.2,3.9-0.7s2.1-1,2.9-1.8c0.8-0.8,1.3-1.7,1.8-2.9c0.4-1.1,0.6-2.3,0.6-3.7v-1.8c-2.7,0-5.2,0.2-7.4,0.5
		s-4.1,1-5.4,1.9c-1.3,0.9-2,2.2-2,4c0,0.9,0.2,1.7,0.6,2.3s1,1.2,1.9,1.5C459.6,65.4,460.6,65.6,461.9,65.6z"/>
	<path class="st1" d="M489.1,72.1v-53h8.9v53H489.1z"/>
</g>
<g>
	<circle class="st1" cx="68.7" cy="66" r="49"/>
	<path class="st2" d="M35.2,59.9c0.2-0.3-0.3-0.3-1.2,0c-3.2,1.5-9.7,4.7-11.5,5.4c0,2.6-0.5,14.9,8.2,27.3
		C29.5,82.7,30.1,68,35.2,59.9z"/>
	<path class="st2" d="M56.3,97c-0.2,0-3.3,8.1-5.1,11.9c1.4,0.6,2.9,1.2,4.3,1.6C56.8,105.9,57,100.5,56.3,97z"/>
	<path class="st2" d="M46.1,55.8c-6,0.6-9.7,8.8-10.1,10c-6.8,18.2,1,19.6,0.1,32.9c0.7,0.7,1.1,1.1,1.9,1.8
		c1.2-1.1,2.1-4.4,2.2-5.9c0.9,2.8,1.8,9,1.8,9.1c2.8,2,4.8,3.1,8.2,4.7C50.2,84.8,39.5,89.5,46.1,55.8z"/>
	<path class="st2" d="M95.6,66.5c-0.6-6.2-8.8-8.5-14.2-6.2c-3.4,1.4-5.1,4.5-4.1,8.7c0.1,0.5,0.2,1.3,1.3,1
		c1.6-0.4,8.4-2.7,9.2-2.9c-0.4,0.8-5.3,8.9-5.6,9.3c1.4-0.5,7.4-3,8.1-3.2c-0.5,0.9-3.1,5.3-3.8,6.6c0.3,0,4.1,0.2,5-0.2
		c2.3-1.8,9.5-7.6,9.5-7.8C100.9,71.8,95.6,66.5,95.6,66.5z"/>
	<path class="st2" d="M82.9,54.2c0,0-4.1-0.3-4.1-0.3C78.7,57.7,83,56.7,82.9,54.2z"/>
	<path class="st2" d="M102.6,67.1c-0.2,0.1-0.6,1.2-1.4,0.5c-0.4-0.2-1.5-1.4-1.6-1.4c-0.8-0.2-1.4,0.8-1.3,1.1c0,0.1,2.7,2.3,3.5,3
		c0,0,0,0,0,0c2.2-1.6,2.5-3.4,2.5-3.4c0-2-9.8-9.5-13.4-12.5l0,0c-0.6-0.8-0.9-1.4-1.1-3c-0.2-2.6-1.6-6.9-3.2-7.5
		c-0.3-0.2-0.2-0.5-0.2-0.8C88.6,33,82.9,30.7,82,29.7c0,1.1,0.8,2.7,0.9,3c1.1,2.6,0.2,3.4,0,2.9c-3-8.4-12.3-15-26.7-13.1
		c5,1.9,9.6,4,12.1,9.2c-0.1,0-8.9-7.2-19-7.4c-8.1,3.7-15.9,10-21.2,20c0,0,4.5-1.2,6.5-1.4c-2.7,1.9-6.2,3.8-8.6,6
		c-2,4.8-3.1,10-3.3,15.6C33.3,55,41.1,51.2,48.2,53.2c-9.1-16.4,2.6-25.3,14.2-11.3c-0.6,0.6-1.8,0.8-2.1,0.3
		c-5.2-6.9-19.7-8.1-9.6,10.8c-1,1.9-10,22.4,0.7,39.5c0.5,0.8,0.2-7.2,1-11c2.1,0.5,7.5,16.5,9.8,24.1c1.5-2.1,3.3-6.1,4.2-7.6
		c0.5,1.5,0.8,11.1,1.2,14.4c0.2,0,2.1,0.1,5.1-0.2c1.2-1.7,2.1-3.6,2.5-4.3l0.6,3.9c6.7-1.1,12-2.9,17-6.2
		c2.7-1.8,0.5-14.9,0.3-15.9c0.2,0.1,4.6,2.3,5,1.8c0.7-1-0.9-6.5-0.8-6.9c0.1,0,2.3,2.2,2.8,1.9c0.7-0.5-0.6-4.4-0.4-4.6
		c0.2-0.2,1.8,1.5,2.1,1.2l0,0c0,0,0,0,0,0c0.5-0.7-0.7-6.4-1.3-6.6c-0.1,0-4.3,6.5-10.8,9.2c-0.4,0.2,2.8,11.3,1.6,13.1
		C89.6,96.6,55.2,75,75.6,57.1c0.4-0.3,0.4-0.8,0.1-0.9c-0.6-0.2-2.7-0.8-3.2-1c0.2-0.5,2-0.9,2.1-1c-1.8-1.5-2-2.4-2-2.9
		c3.2,1.7,4.5,1.7,6.9,1.3c1.6-0.2,2.8-0.9,5.8,0.3C88.1,54.1,102.6,65.3,102.6,67.1C102.6,67.1,102.6,67.1,102.6,67.1
		C102.6,67.1,102.6,67.1,102.6,67.1C102.6,67,102.6,67.1,102.6,67.1z M52.7,48.5c-7.5-7.4,0.8-11,4.5-5.2
		C57.6,43.5,52.7,48.4,52.7,48.5z M81.4,40.3c-5-1.9-13.1-0.5-13.1-0.5c2.7-2.1-3.2-5.9-2.6-5.5c1.6,0.8,9.3,3.3,9.3,2.2
		c-0.1-1.3-4.2-9.1-2-6.8C73,29.6,79.3,35.2,81.4,40.3z"/>
</g>
</svg>
