<?xml version="1.0" encoding="UTF-8"?>
<svg id="Layer_1" data-name="Layer 1" xmlns="http://www.w3.org/2000/svg" version="1.1" viewBox="0 0 523.42 135.16">
  <defs>
    <style>
      .cls-1 {
        fill: #fff;
        stroke-width: 0px;
      }
    </style>
  </defs>
  <g>
    <rect class="cls-1" x="125.72" y="81.63" width="373.23" height="2.33"/>
    <g>
      <path class="cls-1" d="M135.98,112.29c-6.37,0-10.25-4.73-10.25-10.67,0-6.31,4.45-11.3,10.98-11.3s10.19,4.7,10.19,10.67-4.26,11.3-10.92,11.3ZM135.94,93.52c-3.19,0-5.65,2.56-5.65,7.13,0,5.05,2.43,8.39,6.41,8.39,3.22,0,5.62-2.71,5.62-7.19,0-4.7-2.27-8.33-6.37-8.33Z"/>
      <path class="cls-1" d="M161.46,111.82h-12.48s1.33-.05,1.33-3.41v-11.69c0-2.97-1.44-3.05-1.44-3.05h6.67s-1.47.05-1.47,3.05v12.59h3.79c2.34,0,3.54-1.23,4.52-3.49l-.93,5.99Z"/>
      <path class="cls-1" d="M171.98,111.82h-7.98s1.53-.05,1.53-3.38v-11.71c0-2.97-1.74-3.05-1.74-3.05h8.47c5.72,0,9.37,3.62,9.37,8.88,0,4.77-2.86,9.26-9.64,9.26ZM171.32,96.13h-1.88v13.18h2.67c3.68,0,5.39-3.19,5.39-6.54,0-3.9-1.99-6.65-6.18-6.65Z"/>
      <path class="cls-1" d="M198.88,111.82h-9.25s1.77-.06,1.77-3.91v-13.57c0-3.44-2.02-3.53-2.02-3.53h9.81c6.63,0,10.85,4.2,10.85,10.29,0,5.52-3.31,10.73-11.17,10.73ZM198.12,93.64h-2.18v15.27h3.09c4.26,0,6.25-3.69,6.25-7.57,0-4.51-2.3-7.7-7.16-7.7Z"/>
      <path class="cls-1" d="M221.07,112.23c-5.5,0-8.85-4.09-8.85-9.21,0-5.45,3.84-9.75,9.48-9.75s8.8,4.06,8.8,9.21-3.68,9.75-9.43,9.75ZM221.04,96.02c-2.75,0-4.88,2.21-4.88,6.16,0,4.36,2.1,7.25,5.53,7.25,2.78,0,4.85-2.34,4.85-6.21,0-4.06-1.96-7.19-5.5-7.19Z"/>
      <path class="cls-1" d="M247.01,111.82s1.34-.05,1.34-3.11v-10.32l-6.13,13.84-6.27-13.81v10.16c0,3.13,1.74,3.24,1.74,3.24h-6.32s1.72-.08,1.72-3.27v-11.96c0-2.86-1.8-2.92-1.8-2.92h6.67l4.82,10.98,4.77-10.98h6.02s-1.53.05-1.53,2.97v12.07c0,3.02,1.53,3.11,1.53,3.11h-6.57Z"/>
      <path class="cls-1" d="M255.35,111.82s1.44-.08,1.44-2.83v-12.39c0-2.78-1.44-2.92-1.44-2.92h6.76s-1.44.14-1.44,2.92v12.39c0,2.75,1.44,2.83,1.44,2.83h-6.76Z"/>
      <path class="cls-1" d="M281.42,96.67v15.15h-2.83s-.68-2.1-2.91-4.82l-6.07-7.41v9.26c0,2.86,1.69,2.97,1.69,2.97h-6.13s1.42-.08,1.42-3v-11.96c0-2.1-2.29-3.1-2.48-3.19h5.78l8.58,10.71v-7.71c0-2.91-1.55-3-1.55-3h5.99s-1.47.08-1.47,3Z"/>
      <path class="cls-1" d="M284.61,111.82s1.44-.08,1.44-2.83v-12.39c0-2.78-1.44-2.92-1.44-2.92h6.76s-1.44.14-1.44,2.92v12.39c0,2.75,1.44,2.83,1.44,2.83h-6.76Z"/>
      <path class="cls-1" d="M302.13,112.23c-5.5,0-8.85-4.09-8.85-9.21,0-5.45,3.84-9.75,9.48-9.75s8.8,4.06,8.8,9.21-3.68,9.75-9.43,9.75ZM302.1,96.02c-2.75,0-4.88,2.21-4.88,6.16,0,4.36,2.1,7.25,5.53,7.25,2.78,0,4.85-2.34,4.85-6.21,0-4.06-1.96-7.19-5.5-7.19Z"/>
      <path class="cls-1" d="M329.97,96.67v15.15h-2.83s-.68-2.1-2.91-4.82l-6.07-7.41v9.26c0,2.86,1.69,2.97,1.69,2.97h-6.13s1.42-.08,1.42-3v-11.96c0-2.1-2.29-3.1-2.48-3.19h5.78l8.58,10.71v-7.71c0-2.91-1.55-3-1.55-3h5.99s-1.47.08-1.47,3Z"/>
      <path class="cls-1" d="M357.5,94.34v9.94c0,5.68-3.12,8.01-8.23,8.01-6.03,0-8.65-2.59-8.65-7.7v-10.25c0-3.47-1.67-3.53-1.67-3.53h7.89s-1.67.06-1.67,3.44v10.16c0,3.53,1.42,4.8,4.35,4.8s4.16-1.61,4.16-4.8v-10.06c0-3.44-1.86-3.53-1.86-3.53h7.51s-1.83.03-1.83,3.53Z"/>
      <path class="cls-1" d="M377.49,96.67v15.15h-2.83s-.68-2.1-2.91-4.82l-6.07-7.41v9.26c0,2.86,1.69,2.97,1.69,2.97h-6.13s1.42-.08,1.42-3v-11.96c0-2.1-2.29-3.1-2.48-3.19h5.78l8.58,10.71v-7.71c0-2.91-1.55-3-1.55-3h5.99s-1.47.08-1.47,3Z"/>
      <path class="cls-1" d="M380.68,111.82s1.44-.08,1.44-2.83v-12.39c0-2.78-1.44-2.92-1.44-2.92h6.76s-1.44.14-1.44,2.92v12.39c0,2.75,1.44,2.83,1.44,2.83h-6.76Z"/>
      <path class="cls-1" d="M405.58,97.11l-5.78,14.71h-2.78l-5.94-14.85c-1.28-3.24-2.62-3.3-2.62-3.3h7.41s-1.17.05-1.17,1.23c0,.38.19.82.46,1.5l3.81,9.59,3.68-9.7c.22-.54.33-.95.33-1.31,0-1.25-1.2-1.31-1.2-1.31h6.4s-1.28.03-2.61,3.43Z"/>
      <path class="cls-1" d="M421.96,111.82h-12.53s1.55-.08,1.55-3.24v-11.88c0-2.92-1.8-3.02-1.8-3.02h12.45v5.18c-.19-.93-.84-2.72-3.24-2.72h-3.54v5.28h3.08c2.02,0,2.15-1.42,2.15-1.42v5.28s-.11-1.39-2.1-1.39h-3.13v5.42l3.79-.03c2.21-.03,3.38-.93,4.22-3l-.9,5.53Z"/>
      <path class="cls-1" d="M434.93,111.82l-3.02-5.58c-.82-1.5-1.09-1.77-1.66-1.77h-.52v4.33c0,2.97,1.47,3.02,1.47,3.02h-6.67s1.47-.05,1.47-3.02v-11.99c0-3-1.66-3.13-1.66-3.13h7.98c4.28,0,6.46,2.59,6.46,5.31,0,2.26-1.52,4.58-4.55,4.93.46.19.93.74,1.42,1.58l2.45,4.28c1.09,1.91,2.51,1.99,2.7,2.04h-5.86ZM431.58,96.13h-1.88v6.1h1.93c2.32,0,3.22-1.53,3.22-3.13,0-1.52-1.12-2.97-3.27-2.97Z"/>
      <path class="cls-1" d="M447.22,112.23c-2.02,0-3.9-.52-5.18-1.36v-5.78c.93,3.24,3.16,4.47,5.28,4.47,1.64,0,2.89-.79,2.89-2.1,0-1.91-2.23-2.7-4.33-3.84-1.91-1.04-3.76-2.29-3.76-4.9,0-3.35,2.64-5.42,6.29-5.42,1.69,0,3.27.52,4.25,1.23v4.79c-.79-2.42-2.7-3.38-4.52-3.38s-2.56.95-2.56,1.96c0,1.47,1.61,2.21,3.38,3.08,2.31,1.12,4.93,2.45,4.93,5.8,0,3.54-2.86,5.45-6.67,5.45Z"/>
      <path class="cls-1" d="M455.77,111.82s1.44-.08,1.44-2.83v-12.39c0-2.78-1.44-2.92-1.44-2.92h6.76s-1.44.14-1.44,2.92v12.39c0,2.75,1.44,2.83,1.44,2.83h-6.76Z"/>
      <path class="cls-1" d="M476.47,96.15h-2.34v12.61c0,3.02,1.44,3.05,1.44,3.05h-6.81s1.44,0,1.44-3.05v-12.61h-2.37c-2.04,0-2.97.19-3.79,2.62l.44-5.09h15.39l.38,5.09c-.84-2.34-1.63-2.62-3.79-2.62Z"/>
      <path class="cls-1" d="M496.36,96.86l-4.36,7.33v4.58c0,3,1.42,3.05,1.42,3.05h-6.81s1.47-.05,1.47-3.05v-4.44l-4.3-7.52c-1.74-3.05-2.89-3.13-2.89-3.13h7.41s-.87.05-.87,1.03c0,.44.16,1.06.68,1.96l2.59,4.47,2.32-4c.68-1.2.98-1.91.98-2.43,0-.98-.82-1.03-.82-1.03h5.99s-1.01.14-2.81,3.19Z"/>
      <path class="cls-1" d="M497.75,106.65v.79h-1.53v4h-.95v-4h-1.53v-.79h4.02ZM502.92,111.44l-.18-2.82c-.02-.37-.02-.83-.03-1.34h-.05c-.12.42-.26.99-.4,1.43l-.86,2.66h-.99l-.86-2.73c-.09-.37-.23-.93-.33-1.36h-.05c0,.44-.02.9-.04,1.34l-.17,2.82h-.92l.35-4.79h1.42l.83,2.34c.1.37.19.72.32,1.21h.02c.12-.44.23-.85.33-1.2l.83-2.36h1.37l.37,4.79h-.95Z"/>
    </g>
    <g>
      <path class="cls-1" d="M151.08,72.58c-5.23,0-9.75-.94-13.56-2.82-3.81-1.88-6.73-4.75-8.76-8.61-2.03-3.86-3.04-8.72-3.04-14.59s1.01-10.79,3.04-14.62c2.03-3.84,4.95-6.69,8.76-8.58,3.81-1.88,8.33-2.82,13.56-2.82s9.81.94,13.6,2.82c3.79,1.88,6.69,4.74,8.72,8.58,2.03,3.84,3.04,8.71,3.04,14.62s-1.01,10.73-3.04,14.59c-2.03,3.86-4.94,6.73-8.72,8.61-3.79,1.88-8.32,2.82-13.6,2.82ZM151.08,64.52c2.54,0,4.78-.37,6.71-1.1,1.93-.73,3.55-1.82,4.87-3.26,1.32-1.44,2.32-3.23,3.01-5.35.68-2.13,1.03-4.58,1.03-7.37v-1.61c0-2.83-.34-5.33-1.03-7.48-.68-2.15-1.69-3.95-3.01-5.39-1.32-1.44-2.94-2.53-4.87-3.26-1.93-.73-4.17-1.1-6.71-1.1s-4.78.37-6.71,1.1c-1.93.73-3.56,1.82-4.87,3.26-1.32,1.44-2.31,3.24-2.97,5.39-.66,2.15-.99,4.64-.99,7.48v1.61c0,2.79.33,5.24.99,7.37.66,2.13,1.65,3.91,2.97,5.35,1.32,1.44,2.94,2.53,4.87,3.26,1.93.73,4.17,1.1,6.71,1.1Z"/>
      <path class="cls-1" d="M183.91,71.7V21.42h20.16c5.08,0,9.43.9,13.05,2.71,3.62,1.81,6.4,4.56,8.36,8.25,1.95,3.69,2.93,8.42,2.93,14.18s-.98,10.43-2.93,14.15c-1.96,3.71-4.74,6.48-8.36,8.28-3.62,1.81-7.97,2.71-13.05,2.71h-20.16ZM193.44,63.57h10.63c2.35,0,4.42-.34,6.23-1.03,1.81-.68,3.32-1.7,4.54-3.04,1.22-1.34,2.15-3.03,2.79-5.06.63-2.03.95-4.39.95-7.07v-1.54c0-2.74-.32-5.12-.95-7.15-.64-2.03-1.57-3.71-2.79-5.06-1.22-1.34-2.74-2.36-4.54-3.04-1.81-.68-3.88-1.03-6.23-1.03h-10.63v34.01Z"/>
      <path class="cls-1" d="M256.57,72.58c-4.4,0-8.19-.71-11.36-2.13-3.18-1.42-5.61-3.58-7.29-6.49-1.69-2.91-2.53-6.54-2.53-10.89v-31.67h9.53v31.37c0,3.86,1.01,6.78,3.04,8.76,2.03,1.98,4.9,2.97,8.61,2.97s6.61-.99,8.69-2.97c2.08-1.98,3.12-4.9,3.12-8.76v-31.37h9.53v31.67c0,4.35-.86,7.98-2.57,10.89-1.71,2.91-4.15,5.07-7.33,6.49-3.18,1.42-6.99,2.13-11.44,2.13Z"/>
      <path class="cls-1" d="M315.65,72.58c-7.77,0-13.81-2.09-18.11-6.27-4.3-4.18-6.45-10.76-6.45-19.76,0-5.91,1.01-10.79,3.04-14.62,2.03-3.84,4.96-6.69,8.8-8.58,3.84-1.88,8.44-2.82,13.82-2.82,3.22,0,6.25.37,9.09,1.1,2.83.73,5.34,1.85,7.51,3.34,2.17,1.49,3.87,3.36,5.1,5.61,1.22,2.25,1.83,4.91,1.83,7.99h-9.82c0-1.61-.35-3.04-1.06-4.29-.71-1.25-1.69-2.3-2.93-3.15-1.25-.85-2.68-1.49-4.29-1.91-1.61-.41-3.32-.62-5.13-.62-2.69,0-5.05.36-7.07,1.06-2.03.71-3.71,1.78-5.06,3.23-1.35,1.44-2.35,3.24-3.01,5.39-.66,2.15-.99,4.67-.99,7.55v1.54c0,3.96.56,7.21,1.69,9.75,1.12,2.54,2.82,4.41,5.09,5.61,2.27,1.2,5.09,1.8,8.47,1.8,2.88,0,5.41-.44,7.59-1.32,2.17-.88,3.88-2.16,5.13-3.85,1.25-1.69,1.87-3.75,1.87-6.19v-.51h-16.05v-7.92h25.58v26.98h-6.82l-.81-5.57c-1.47,1.47-3.03,2.68-4.69,3.63-1.66.95-3.49,1.66-5.5,2.13-2,.46-4.28.7-6.82.7Z"/>
      <path class="cls-1" d="M348.83,71.7V18.7h8.94v53h-8.94Z"/>
      <path class="cls-1" d="M383.01,72.58c-4.2,0-7.72-.72-10.56-2.16-2.83-1.44-4.96-3.65-6.38-6.63-1.42-2.98-2.13-6.77-2.13-11.36s.71-8.44,2.13-11.4c1.42-2.96,3.54-5.16,6.38-6.6,2.83-1.44,6.35-2.16,10.56-2.16s7.78.72,10.59,2.16c2.81,1.44,4.92,3.64,6.34,6.6,1.42,2.96,2.13,6.76,2.13,11.4s-.71,8.38-2.13,11.36c-1.42,2.98-3.53,5.19-6.34,6.63-2.81,1.44-6.34,2.16-10.59,2.16ZM383.01,65.25c2.35,0,4.24-.45,5.68-1.36,1.44-.9,2.49-2.27,3.15-4.1.66-1.83.99-4.12.99-6.85v-1.03c0-2.74-.33-5.02-.99-6.85-.66-1.83-1.71-3.2-3.15-4.1-1.44-.9-3.34-1.36-5.68-1.36s-4.24.45-5.68,1.36c-1.44.9-2.49,2.27-3.15,4.1-.66,1.83-.99,4.12-.99,6.85v1.03c0,2.74.33,5.02.99,6.85.66,1.83,1.71,3.2,3.15,4.1,1.44.9,3.33,1.36,5.68,1.36Z"/>
      <path class="cls-1" d="M428.62,72.58c-2.49,0-4.77-.5-6.82-1.5-2.05-1-3.71-2.5-4.98-4.51h-.51l-.73,5.13h-7.4V18.7h8.94v18.91h.44c.78-1.17,1.73-2.16,2.86-2.97,1.12-.81,2.42-1.4,3.88-1.8,1.47-.39,3.08-.59,4.84-.59,2.88,0,5.44.71,7.66,2.13,2.22,1.42,3.97,3.6,5.24,6.56,1.27,2.96,1.91,6.76,1.91,11.4s-.62,8.53-1.87,11.51c-1.25,2.98-3.01,5.18-5.28,6.6-2.27,1.42-5,2.13-8.17,2.13ZM425.83,64.89c2.2,0,3.95-.43,5.24-1.28,1.29-.85,2.22-2.16,2.79-3.92s.84-3.98.84-6.67v-1.03c0-2.74-.28-5-.84-6.78-.56-1.78-1.49-3.1-2.79-3.96-1.29-.85-3.04-1.28-5.24-1.28-1.52,0-2.82.27-3.92.81-1.1.54-2,1.32-2.71,2.35-.71,1.03-1.24,2.3-1.58,3.81-.34,1.52-.51,3.23-.51,5.13v.95c0,2.54.3,4.69.92,6.45.61,1.76,1.56,3.1,2.86,4.03,1.29.93,2.94,1.39,4.95,1.39Z"/>
      <path class="cls-1" d="M460.12,72.58c-1.07,0-2.31-.14-3.7-.4-1.39-.27-2.74-.77-4.03-1.5-1.29-.73-2.36-1.82-3.19-3.26-.83-1.44-1.25-3.34-1.25-5.68,0-2.64.59-4.83,1.76-6.56,1.17-1.73,2.82-3.1,4.95-4.1,2.13-1,4.67-1.71,7.62-2.13,2.96-.41,6.19-.62,9.71-.62v-3.15c0-1.12-.17-2.13-.51-3.01-.34-.88-.97-1.58-1.87-2.09-.9-.51-2.26-.77-4.07-.77s-3.22.22-4.25.66c-1.03.44-1.74.98-2.13,1.61-.39.64-.59,1.3-.59,1.98v1.03h-8.65c-.05-.24-.07-.49-.07-.73v-.88c0-2.2.66-4.1,1.98-5.72s3.15-2.85,5.5-3.7c2.35-.85,5.06-1.28,8.14-1.28,3.52,0,6.41.49,8.69,1.47,2.27.98,3.97,2.37,5.09,4.18,1.12,1.81,1.69,4.01,1.69,6.6v18.18c0,.93.27,1.59.81,1.98.54.39,1.12.59,1.76.59h2.35v6.16c-.49.2-1.2.43-2.13.7-.93.27-2.08.4-3.45.4-1.27,0-2.41-.21-3.41-.62-1-.41-1.85-1.01-2.53-1.8-.68-.78-1.17-1.71-1.47-2.79h-.44c-.83,1.03-1.82,1.94-2.97,2.75-1.15.81-2.49,1.43-4.03,1.87-1.54.44-3.31.66-5.31.66ZM462.83,65.25c1.47,0,2.77-.22,3.92-.66s2.1-1.05,2.86-1.83c.76-.78,1.34-1.73,1.76-2.86.41-1.12.62-2.35.62-3.66v-1.76c-2.69,0-5.17.17-7.44.51-2.27.34-4.08.98-5.42,1.91-1.34.93-2.02,2.25-2.02,3.96,0,.88.21,1.65.62,2.31.41.66,1.05,1.17,1.91,1.54.85.37,1.92.55,3.19.55Z"/>
      <path class="cls-1" d="M490.01,71.7V18.7h8.94v53h-8.94Z"/>
    </g>
  </g>
  <g>
    <path class="cls-1" d="M81.48,61.1c-.22.09-.43.19-.63.3-3.07,1.58-4.6,4.65-3.59,8.68.14.56.2,1.37,1.31,1.05,1.6-.44,8.69-2.76,9.48-3-.82,1.39-1.66,2.79-2.5,4.2-.14.24-.28.47-.42.71-.33.56-.67,1.11-.98,1.63-.03.06-.07.12-.1.18-.27.46-.53.88-.76,1.27-.27.46-.57.94-.84,1.42-.03.06-.07.15,0,.18.23,0,.51-.17.74-.24,1.13-.45,2.17-.89,3.28-1.36,1.52-.61,2.72-1.16,4.18-1.7.04.04-.08.19-.11.25-.3.52-.59,1.02-.91,1.58-.23.39-.48.82-.73,1.25-.7,1.19-1.4,2.37-2.08,3.6-.03.05-.06.1-.03.14.04.05.14.04.23.05.36.01.69.03,1.06.04,1.1.02,2.24.06,3.3-.12.6-.12,1-.56,1.48-.92,1.81-1.44,3.67-2.93,5.44-4.38l2.85-2.28-5.61-5.59c.13-6.6-8.52-9.25-14.06-6.91Z"/>
    <path class="cls-1" d="M103.06,33.21l-.03-.03C67.3-1.64,9.46,31.27,21.06,79.79c3.24,13.06,12.45,24.65,24.29,30.93,13.95,7.58,31.68,7.65,45.69.2,28.96-15.02,35.19-54.56,12.02-77.71ZM56.98,22.63c4.52,1.79,8.69,4.04,10.95,8.88,0,0,0,0-.01.01-.52-.41-7.49-5.85-16.1-7.26,1.68-.64,3.41-1.19,5.16-1.63ZM26.85,46.48c.64-1.17,1.76-2.77,2.47-3.9,1.5-.26,4.36-.75,6.07-1.04.53-.09,2.49-.32,2.91-.39-1.61.88-9.79,5.11-11.9,6.24l.44-.9ZM37.32,102.08c1.48-2.21,1.82-5.26,1.84-5.47.53.89,1.35,6.36,1.65,8.34-1.2-.89-2.37-1.85-3.49-2.86ZM55.73,112.27c1.1-4.76.52-9.78-.16-13.15,0,0,0-.02-.02-.01,0,0,0,0,0,0,0,0,0,0,0,0-.28.23-2.98,7.35-4.86,11.41-.64-.26-1.27-.54-1.89-.83-.22-3.05-1.11-12.54-4.33-22.82-5.44-17.39,1.48-30.6,1.48-30.6,0,0-2.1-.48-4.76.86-2.66,1.33-5.89,4.48-8.12,11.72,0,0,0,0,0,.01-4.18,12.9,1.53,28.05,3.39,32.41-.29-.28-.59-.56-.88-.85-2.56-2.56-4.78-5.37-6.65-8.37-.84-8.47-.27-19.49,2.88-27.4.78-2.08,1.9-3.9,3.25-5.67.43-.6.98-1.19,1.39-1.53.24-.21.2-.3-.17-.18-4.99,1.41-10.99,4.55-13.92,7.51-.5.55-.2-.8-.21-1.02,8.45-10.59,23.88-10.22,25-10,0,0,0,0,0,0-9.12-16.5,2.14-25.62,13.82-12.7,0,0,0,.01,0,.02-.56.26-1.1.55-1.63.85,0,0,0,0-.01,0-5.65-6.74-19.77-7.45-9.55,11.6,0,0,0,0,0,0-.6,1.76-9.68,22.65.77,40.8.49.86.26-7.42,1.04-11.4,0,0,0,0,.01,0,2.15.53,7.69,17.08,10.07,24.9,0,0,0,0,.02,0,1.55-2.14,3.44-6.21,4.27-7.78,0,0,0,0,.01,0,.43,1.45.76,9.98,1.12,13.96-3.89-.11-7.71-.69-11.37-1.72ZM57.11,43.94c-2.3,1.77-4.21,3.98-5.59,6.5-.66-1.16-3.86-7.08-1.27-9,2.51-1.86,5.9,1.46,6.86,2.5ZM66,35.88c-.41-.31-.46-.34-.42-.41.03-.06.11-.04.13-.03,4.2,1.2,8.87,2.36,9.3,2.03,0,0,0,0,0,0,.14-.68-.87-2.79-1.68-4.48-.95-1.98-1.29-2.74-1.07-2.9.11-.08.3-.02.88.55.13.11,6.54,5.82,8.75,11.06l.08.19-.18-.1c-3.63-2.08-7.76-3.03-11.94-2.74-.24.02-.47.04-.7.06h-.12s-.02-.04-.02-.04c-.49-1.29-2.25-2.6-3.01-3.17ZM73.13,113.77l2.09-6,.86,5.65c-.8.12-2.14.27-2.95.35ZM101.19,100.42c-1.83,1.83-3.79,3.49-5.85,4.97,1.73-4.73-1.54-13.01-1.73-13.93,0,0,0,0,0,0,.27.15,4.79,2.42,5.15,1.89.72-1.06-.89-6.67-.78-7.11,0,0,0,0,0,0,.13.05,2.37,2.31,2.84,1.97.72-.51-.6-4.54-.42-4.8,0,0,0,0,0,0,.2-.16,1.91,1.58,2.2,1.26,0,0,0,0,0,0,0,0,0-.01.01-.02.5-.68.75-3.99-1-5.91,0,0,0,0,0,0,0,0-4.78,5.81-11.5,8.6-.46.19,2.84,11.35,1.73,13.45l-.05.1-.3-.29c-3.82-3.4-36.44-24.91-16.05-42.81.39-.35.45-.84.14-.95-.6-.21-2.8-.84-3.29-1.01.2-.48,1.9-.91,2.11-.98,0,0,0-.01,0-.02-1.8-1.59-2.01-2.49-2.04-2.94,3.65,1.6,4.73,1.06,7.15.62,1.79-.32,2.92-.73,6.03.52,0,0,6.58,3.3,16.32,13.27.03.04.98.94,1.32,1.28.24.22.36.63.14.89-.11.13-.29.3-.42.43-.28.27-.73.12-.96-.15-.35-.35-.9-.89-1.28-1.22-.67-.58-.92-1.17-1.68-.26-.46.36-.25.82.13,1.17.89.87,2.9,2.86,3.65,3.59.01.02.02.01.05-.02.13-.13.27-.27.4-.4,1.23-1.23,2.79-2.8,1.64-4.57-.28-.43-.71-.98-1.35-1.61,0,0,0,0,0,0-3.07-3.29-9.7-8.58-12.26-10.68-1.37-1.12-1.15-2.87-1.15-2.87,0-2.67-1.59-7.14-3.31-7.8-.29-.19-.26-.5-.18-.79,2.98-10.42-3.62-12.77-4.49-13.78-.02,1.12.77,2.76.89,3.05,1.18,2.71.2,3.52.03,3.01-2.32-6.81-8.69-12.33-18.34-13.6-.72-.1-1.9-.18-2.53-.29-.11-.06.38-.08.44-.1,1.91-.24,3.84-.36,5.79-.36,12.39,0,24.04,4.83,32.81,13.59,8.76,8.76,13.59,20.41,13.59,32.81s-4.83,24.04-13.59,32.81Z"/>
    <path class="cls-1" d="M82.73,56c.5-.91.32-1.32-.71-1.56-.77-.21-1.59-.23-2.38-.1-.39.07-.84.12-.86.52v.03c.04,2.35,2.68,2.98,3.95,1.1Z"/>
  </g>
</svg>