<?xml version="1.0" encoding="UTF-8"?>
<svg id="Layer_1" data-name="Layer 1" xmlns="http://www.w3.org/2000/svg" version="1.1" viewBox="0 0 523.42 135.16">
  <defs>
    <style>
      .cls-1 {
        fill: #172435;
      }

      .cls-1, .cls-2 {
        stroke-width: 0px;
      }

      .cls-2 {
        fill: #fdb614;
      }
    </style>
  </defs>
  <rect class="cls-2" x="125.23" y="83.58" width="373.23" height="2.33"/>
  <g>
    <g>
      <path class="cls-1" d="M135.49,114.25c-6.37,0-10.25-4.73-10.25-10.67,0-6.31,4.45-11.3,10.98-11.3s10.19,4.7,10.19,10.67-4.26,11.3-10.92,11.3ZM135.45,95.47c-3.19,0-5.65,2.56-5.65,7.13,0,5.05,2.43,8.39,6.41,8.39,3.22,0,5.62-2.71,5.62-7.19,0-4.7-2.27-8.33-6.37-8.33Z"/>
      <path class="cls-1" d="M160.97,113.77h-12.48s1.33-.05,1.33-3.41v-11.69c0-2.97-1.44-3.05-1.44-3.05h6.67s-1.47.05-1.47,3.05v12.59h3.79c2.34,0,3.54-1.23,4.52-3.49l-.93,5.99Z"/>
      <path class="cls-1" d="M171.49,113.77h-7.98s1.53-.05,1.53-3.38v-11.71c0-2.97-1.74-3.05-1.74-3.05h8.47c5.72,0,9.37,3.62,9.37,8.88,0,4.77-2.86,9.26-9.64,9.26ZM170.83,98.08h-1.88v13.18h2.67c3.68,0,5.39-3.19,5.39-6.54,0-3.9-1.99-6.65-6.18-6.65Z"/>
      <path class="cls-1" d="M198.39,113.77h-9.25s1.77-.06,1.77-3.91v-13.57c0-3.44-2.02-3.53-2.02-3.53h9.81c6.63,0,10.85,4.2,10.85,10.29,0,5.52-3.31,10.73-11.17,10.73ZM197.63,95.6h-2.18v15.27h3.09c4.26,0,6.25-3.69,6.25-7.57,0-4.51-2.3-7.7-7.16-7.7Z"/>
      <path class="cls-1" d="M220.58,114.18c-5.5,0-8.85-4.09-8.85-9.21,0-5.45,3.84-9.75,9.48-9.75s8.8,4.06,8.8,9.21-3.68,9.75-9.43,9.75ZM220.55,97.97c-2.75,0-4.88,2.21-4.88,6.16,0,4.36,2.1,7.25,5.53,7.25,2.78,0,4.85-2.34,4.85-6.21,0-4.06-1.96-7.19-5.5-7.19Z"/>
      <path class="cls-1" d="M246.52,113.77s1.34-.05,1.34-3.11v-10.32l-6.13,13.84-6.27-13.81v10.16c0,3.13,1.74,3.24,1.74,3.24h-6.32s1.72-.08,1.72-3.27v-11.96c0-2.86-1.8-2.92-1.8-2.92h6.67l4.82,10.98,4.77-10.98h6.02s-1.53.05-1.53,2.97v12.07c0,3.02,1.53,3.11,1.53,3.11h-6.57Z"/>
      <path class="cls-1" d="M254.86,113.77s1.44-.08,1.44-2.83v-12.39c0-2.78-1.44-2.92-1.44-2.92h6.76s-1.44.14-1.44,2.92v12.39c0,2.75,1.44,2.83,1.44,2.83h-6.76Z"/>
      <path class="cls-1" d="M280.93,98.63v15.15h-2.83s-.68-2.1-2.91-4.82l-6.07-7.41v9.26c0,2.86,1.69,2.97,1.69,2.97h-6.13s1.42-.08,1.42-3v-11.96c0-2.1-2.29-3.1-2.48-3.19h5.78l8.58,10.71v-7.71c0-2.91-1.55-3-1.55-3h5.99s-1.47.08-1.47,3Z"/>
      <path class="cls-1" d="M284.12,113.77s1.44-.08,1.44-2.83v-12.39c0-2.78-1.44-2.92-1.44-2.92h6.76s-1.44.14-1.44,2.92v12.39c0,2.75,1.44,2.83,1.44,2.83h-6.76Z"/>
      <path class="cls-1" d="M301.64,114.18c-5.5,0-8.85-4.09-8.85-9.21,0-5.45,3.84-9.75,9.48-9.75s8.8,4.06,8.8,9.21-3.68,9.75-9.43,9.75ZM301.61,97.97c-2.75,0-4.88,2.21-4.88,6.16,0,4.36,2.1,7.25,5.53,7.25,2.78,0,4.85-2.34,4.85-6.21,0-4.06-1.96-7.19-5.5-7.19Z"/>
      <path class="cls-1" d="M329.48,98.63v15.15h-2.83s-.68-2.1-2.91-4.82l-6.07-7.41v9.26c0,2.86,1.69,2.97,1.69,2.97h-6.13s1.42-.08,1.42-3v-11.96c0-2.1-2.29-3.1-2.48-3.19h5.78l8.58,10.71v-7.71c0-2.91-1.55-3-1.55-3h5.99s-1.47.08-1.47,3Z"/>
      <path class="cls-1" d="M357.01,96.29v9.94c0,5.68-3.12,8.01-8.23,8.01-6.03,0-8.65-2.59-8.65-7.7v-10.25c0-3.47-1.67-3.53-1.67-3.53h7.89s-1.67.06-1.67,3.44v10.16c0,3.53,1.42,4.8,4.35,4.8s4.16-1.61,4.16-4.8v-10.06c0-3.44-1.86-3.53-1.86-3.53h7.51s-1.83.03-1.83,3.53Z"/>
      <path class="cls-1" d="M377,98.63v15.15h-2.83s-.68-2.1-2.91-4.82l-6.07-7.41v9.26c0,2.86,1.69,2.97,1.69,2.97h-6.13s1.42-.08,1.42-3v-11.96c0-2.1-2.29-3.1-2.48-3.19h5.78l8.58,10.71v-7.71c0-2.91-1.55-3-1.55-3h5.99s-1.47.08-1.47,3Z"/>
      <path class="cls-1" d="M380.19,113.77s1.44-.08,1.44-2.83v-12.39c0-2.78-1.44-2.92-1.44-2.92h6.76s-1.44.14-1.44,2.92v12.39c0,2.75,1.44,2.83,1.44,2.83h-6.76Z"/>
      <path class="cls-1" d="M405.09,99.06l-5.78,14.71h-2.78l-5.94-14.85c-1.28-3.24-2.62-3.3-2.62-3.3h7.41s-1.17.05-1.17,1.23c0,.38.19.82.46,1.5l3.81,9.59,3.68-9.7c.22-.54.33-.95.33-1.31,0-1.25-1.2-1.31-1.2-1.31h6.4s-1.28.03-2.61,3.43Z"/>
      <path class="cls-1" d="M421.47,113.77h-12.53s1.55-.08,1.55-3.24v-11.88c0-2.92-1.8-3.02-1.8-3.02h12.45v5.18c-.19-.93-.84-2.72-3.24-2.72h-3.54v5.28h3.08c2.02,0,2.15-1.42,2.15-1.42v5.28s-.11-1.39-2.1-1.39h-3.13v5.42l3.79-.03c2.21-.03,3.38-.93,4.22-3l-.9,5.53Z"/>
      <path class="cls-1" d="M434.44,113.77l-3.02-5.58c-.82-1.5-1.09-1.77-1.66-1.77h-.52v4.33c0,2.97,1.47,3.02,1.47,3.02h-6.67s1.47-.05,1.47-3.02v-11.99c0-3-1.66-3.13-1.66-3.13h7.98c4.28,0,6.46,2.59,6.46,5.31,0,2.26-1.52,4.58-4.55,4.93.46.19.93.74,1.42,1.58l2.45,4.28c1.09,1.91,2.51,1.99,2.7,2.04h-5.86ZM431.09,98.08h-1.88v6.1h1.93c2.32,0,3.22-1.53,3.22-3.13,0-1.52-1.12-2.97-3.27-2.97Z"/>
      <path class="cls-1" d="M446.72,114.18c-2.02,0-3.9-.52-5.18-1.36v-5.78c.93,3.24,3.16,4.47,5.28,4.47,1.64,0,2.89-.79,2.89-2.1,0-1.91-2.23-2.7-4.33-3.84-1.91-1.04-3.76-2.29-3.76-4.9,0-3.35,2.64-5.42,6.29-5.42,1.69,0,3.27.52,4.25,1.23v4.79c-.79-2.42-2.7-3.38-4.52-3.38s-2.56.95-2.56,1.96c0,1.47,1.61,2.21,3.38,3.08,2.31,1.12,4.93,2.45,4.93,5.8,0,3.54-2.86,5.45-6.67,5.45Z"/>
      <path class="cls-1" d="M455.28,113.77s1.44-.08,1.44-2.83v-12.39c0-2.78-1.44-2.92-1.44-2.92h6.76s-1.44.14-1.44,2.92v12.39c0,2.75,1.44,2.83,1.44,2.83h-6.76Z"/>
      <path class="cls-1" d="M475.98,98.11h-2.34v12.61c0,3.02,1.44,3.05,1.44,3.05h-6.81s1.44,0,1.44-3.05v-12.61h-2.37c-2.04,0-2.97.19-3.79,2.62l.44-5.09h15.39l.38,5.09c-.84-2.34-1.63-2.62-3.79-2.62Z"/>
      <path class="cls-1" d="M495.87,98.82l-4.36,7.33v4.58c0,3,1.42,3.05,1.42,3.05h-6.81s1.47-.05,1.47-3.05v-4.44l-4.3-7.52c-1.74-3.05-2.89-3.13-2.89-3.13h7.41s-.87.05-.87,1.03c0,.44.16,1.06.68,1.96l2.59,4.47,2.32-4c.68-1.2.98-1.91.98-2.43,0-.98-.82-1.03-.82-1.03h5.99s-1.01.14-2.81,3.19Z"/>
      <path class="cls-1" d="M497.26,108.6v.79h-1.53v4h-.95v-4h-1.53v-.79h4.02ZM502.43,113.39l-.18-2.82c-.02-.37-.02-.83-.03-1.34h-.05c-.12.42-.26.99-.4,1.43l-.86,2.66h-.99l-.86-2.73c-.09-.37-.23-.93-.33-1.36h-.05c0,.44-.02.9-.04,1.34l-.17,2.82h-.92l.35-4.79h1.42l.83,2.34c.1.37.19.72.32,1.21h.02c.12-.44.23-.85.33-1.2l.83-2.36h1.37l.37,4.79h-.95Z"/>
    </g>
    <g>
      <path class="cls-1" d="M150.59,74.54c-5.23,0-9.75-.94-13.56-2.82-3.81-1.88-6.73-4.75-8.76-8.61-2.03-3.86-3.04-8.72-3.04-14.59s1.01-10.79,3.04-14.62c2.03-3.84,4.95-6.69,8.76-8.58,3.81-1.88,8.33-2.82,13.56-2.82s9.81.94,13.6,2.82c3.79,1.88,6.69,4.74,8.72,8.58,2.03,3.84,3.04,8.71,3.04,14.62s-1.01,10.73-3.04,14.59c-2.03,3.86-4.94,6.73-8.72,8.61-3.79,1.88-8.32,2.82-13.6,2.82ZM150.59,66.47c2.54,0,4.78-.37,6.71-1.1,1.93-.73,3.55-1.82,4.87-3.26,1.32-1.44,2.32-3.23,3.01-5.35.68-2.13,1.03-4.58,1.03-7.37v-1.61c0-2.83-.34-5.33-1.03-7.48-.68-2.15-1.69-3.95-3.01-5.39-1.32-1.44-2.94-2.53-4.87-3.26-1.93-.73-4.17-1.1-6.71-1.1s-4.78.37-6.71,1.1c-1.93.73-3.56,1.82-4.87,3.26-1.32,1.44-2.31,3.24-2.97,5.39-.66,2.15-.99,4.64-.99,7.48v1.61c0,2.79.33,5.24.99,7.37.66,2.13,1.65,3.91,2.97,5.35,1.32,1.44,2.94,2.53,4.87,3.26,1.93.73,4.17,1.1,6.71,1.1Z"/>
      <path class="cls-1" d="M183.42,73.66V23.37h20.16c5.08,0,9.43.9,13.05,2.71,3.62,1.81,6.4,4.56,8.36,8.25,1.95,3.69,2.93,8.42,2.93,14.18s-.98,10.43-2.93,14.15c-1.96,3.71-4.74,6.48-8.36,8.28-3.62,1.81-7.97,2.71-13.05,2.71h-20.16ZM192.95,65.52h10.63c2.35,0,4.42-.34,6.23-1.03,1.81-.68,3.32-1.7,4.54-3.04,1.22-1.34,2.15-3.03,2.79-5.06.63-2.03.95-4.39.95-7.07v-1.54c0-2.74-.32-5.12-.95-7.15-.64-2.03-1.57-3.71-2.79-5.06-1.22-1.34-2.74-2.36-4.54-3.04-1.81-.68-3.88-1.03-6.23-1.03h-10.63v34.01Z"/>
      <path class="cls-1" d="M256.08,74.54c-4.4,0-8.19-.71-11.36-2.13-3.18-1.42-5.61-3.58-7.29-6.49-1.69-2.91-2.53-6.54-2.53-10.89v-31.67h9.53v31.37c0,3.86,1.01,6.78,3.04,8.76,2.03,1.98,4.9,2.97,8.61,2.97s6.61-.99,8.69-2.97,3.12-4.9,3.12-8.76v-31.37h9.53v31.67c0,4.35-.86,7.98-2.57,10.89-1.71,2.91-4.15,5.07-7.33,6.49-3.18,1.42-6.99,2.13-11.44,2.13Z"/>
      <path class="cls-1" d="M315.16,74.54c-7.77,0-13.81-2.09-18.11-6.27-4.3-4.18-6.45-10.76-6.45-19.76,0-5.91,1.01-10.79,3.04-14.62,2.03-3.84,4.96-6.69,8.8-8.58,3.84-1.88,8.44-2.82,13.82-2.82,3.22,0,6.25.37,9.09,1.1,2.83.73,5.34,1.85,7.51,3.34,2.17,1.49,3.87,3.36,5.1,5.61,1.22,2.25,1.83,4.91,1.83,7.99h-9.82c0-1.61-.35-3.04-1.06-4.29-.71-1.25-1.69-2.3-2.93-3.15-1.25-.85-2.68-1.49-4.29-1.91-1.61-.41-3.32-.62-5.13-.62-2.69,0-5.05.36-7.07,1.06-2.03.71-3.71,1.78-5.06,3.23-1.35,1.44-2.35,3.24-3.01,5.39-.66,2.15-.99,4.67-.99,7.55v1.54c0,3.96.56,7.21,1.69,9.75,1.12,2.54,2.82,4.41,5.09,5.61,2.27,1.2,5.09,1.8,8.47,1.8,2.88,0,5.41-.44,7.59-1.32,2.17-.88,3.88-2.16,5.13-3.85,1.25-1.69,1.87-3.75,1.87-6.19v-.51h-16.05v-7.92h25.58v26.98h-6.82l-.81-5.57c-1.47,1.47-3.03,2.68-4.69,3.63-1.66.95-3.49,1.66-5.5,2.13-2,.46-4.28.7-6.82.7Z"/>
      <path class="cls-1" d="M348.34,73.66V20.66h8.94v53h-8.94Z"/>
      <path class="cls-1" d="M382.52,74.54c-4.2,0-7.72-.72-10.56-2.16-2.83-1.44-4.96-3.65-6.38-6.63-1.42-2.98-2.13-6.77-2.13-11.36s.71-8.44,2.13-11.4c1.42-2.96,3.54-5.16,6.38-6.6,2.83-1.44,6.35-2.16,10.56-2.16s7.78.72,10.59,2.16c2.81,1.44,4.92,3.64,6.34,6.6,1.42,2.96,2.13,6.76,2.13,11.4s-.71,8.38-2.13,11.36c-1.42,2.98-3.53,5.19-6.34,6.63-2.81,1.44-6.34,2.16-10.59,2.16ZM382.52,67.21c2.35,0,4.24-.45,5.68-1.36,1.44-.9,2.49-2.27,3.15-4.1.66-1.83.99-4.12.99-6.85v-1.03c0-2.74-.33-5.02-.99-6.85-.66-1.83-1.71-3.2-3.15-4.1-1.44-.9-3.34-1.36-5.68-1.36s-4.24.45-5.68,1.36c-1.44.9-2.49,2.27-3.15,4.1-.66,1.83-.99,4.12-.99,6.85v1.03c0,2.74.33,5.02.99,6.85.66,1.83,1.71,3.2,3.15,4.1,1.44.9,3.33,1.36,5.68,1.36Z"/>
      <path class="cls-1" d="M428.13,74.54c-2.49,0-4.77-.5-6.82-1.5-2.05-1-3.71-2.5-4.98-4.51h-.51l-.73,5.13h-7.4V20.66h8.94v18.91h.44c.78-1.17,1.73-2.16,2.86-2.97,1.12-.81,2.42-1.4,3.88-1.8,1.47-.39,3.08-.59,4.84-.59,2.88,0,5.44.71,7.66,2.13,2.22,1.42,3.97,3.6,5.24,6.56,1.27,2.96,1.91,6.76,1.91,11.4s-.62,8.53-1.87,11.51c-1.25,2.98-3.01,5.18-5.28,6.6-2.27,1.42-5,2.13-8.17,2.13ZM425.34,66.84c2.2,0,3.95-.43,5.24-1.28,1.29-.85,2.22-2.16,2.79-3.92.56-1.76.84-3.98.84-6.67v-1.03c0-2.74-.28-5-.84-6.78-.56-1.78-1.49-3.1-2.79-3.96-1.29-.85-3.04-1.28-5.24-1.28-1.52,0-2.82.27-3.92.81-1.1.54-2,1.32-2.71,2.35-.71,1.03-1.24,2.3-1.58,3.81-.34,1.52-.51,3.23-.51,5.13v.95c0,2.54.3,4.69.92,6.45.61,1.76,1.56,3.1,2.86,4.03,1.29.93,2.94,1.39,4.95,1.39Z"/>
      <path class="cls-1" d="M459.63,74.54c-1.07,0-2.31-.14-3.7-.4-1.39-.27-2.74-.77-4.03-1.5-1.29-.73-2.36-1.82-3.19-3.26-.83-1.44-1.25-3.34-1.25-5.68,0-2.64.59-4.83,1.76-6.56,1.17-1.73,2.82-3.1,4.95-4.1,2.13-1,4.67-1.71,7.62-2.13,2.96-.41,6.19-.62,9.71-.62v-3.15c0-1.12-.17-2.13-.51-3.01-.34-.88-.97-1.58-1.87-2.09-.9-.51-2.26-.77-4.07-.77s-3.22.22-4.25.66c-1.03.44-1.74.98-2.13,1.61-.39.64-.59,1.3-.59,1.98v1.03h-8.65c-.05-.24-.07-.49-.07-.73v-.88c0-2.2.66-4.1,1.98-5.72s3.15-2.85,5.5-3.7c2.35-.85,5.06-1.28,8.14-1.28,3.52,0,6.41.49,8.69,1.47,2.27.98,3.97,2.37,5.09,4.18,1.12,1.81,1.69,4.01,1.69,6.6v18.18c0,.93.27,1.59.81,1.98.54.39,1.12.59,1.76.59h2.35v6.16c-.49.2-1.2.43-2.13.7-.93.27-2.08.4-3.45.4-1.27,0-2.41-.21-3.41-.62-1-.41-1.85-1.01-2.53-1.8-.68-.78-1.17-1.71-1.47-2.79h-.44c-.83,1.03-1.82,1.94-2.97,2.75-1.15.81-2.49,1.43-4.03,1.87-1.54.44-3.31.66-5.31.66ZM462.34,67.21c1.47,0,2.77-.22,3.92-.66s2.1-1.05,2.86-1.83c.76-.78,1.34-1.73,1.76-2.86.41-1.12.62-2.35.62-3.66v-1.76c-2.69,0-5.17.17-7.44.51-2.27.34-4.08.98-5.42,1.91-1.34.93-2.02,2.25-2.02,3.96,0,.88.21,1.65.62,2.31.41.66,1.05,1.17,1.91,1.54.85.37,1.92.55,3.19.55Z"/>
      <path class="cls-1" d="M489.52,73.66V20.66h8.94v53h-8.94Z"/>
    </g>
    <g>
      <path class="cls-1" d="M69.19,38.81h.12c.23-.04.47-.06.71-.08,4.2-.29,8.36.66,12,2.75l.18.1-.08-.19c-2.22-5.27-8.67-11-8.79-11.11-.58-.57-.77-.63-.89-.55-.22.16.12.93,1.07,2.91.82,1.7,1.84,3.82,1.69,4.51,0,0,0,0,0,0-.43.34-5.13-.84-9.35-2.04-.02,0-.1-.03-.13.03-.04.08,0,.11.42.42.76.56,2.53,1.89,3.02,3.18l.02.05Z"/>
      <path class="cls-1" d="M50.32,41.18c-2.6,1.93.61,7.87,1.28,9.04,1.39-2.54,3.31-4.76,5.62-6.54-.96-1.04-4.37-4.38-6.9-2.51Z"/>
      <path class="cls-1" d="M103,32.88c-9.25-9.25-21.55-14.34-34.63-14.34s-25.38,5.09-34.63,14.34c-9.25,9.25-14.34,21.55-14.34,34.63s5.09,25.38,14.34,34.63c9.25,9.25,21.55,14.34,34.63,14.34s25.38-5.09,34.63-14.34c9.25-9.25,14.34-21.55,14.34-34.63s-5.09-25.38-14.34-34.63ZM22.05,65.07c.03.05.09.06.17-.02,1.21-1.24,3.81-3.57,6.82-5.07,2.16-1.06,4.66-2.23,7.55-2.94.05.05-.04.12-.08.16-.41.39-.63.54-1.13,1.18-1.49,1.89-2.74,3.87-3.59,6.13-3.15,7.89-3.73,18.87-2.92,27.36-4.49-7.25-6.89-15.61-6.89-24.35,0-.82.02-1.63.06-2.45ZM44.49,86.84c3.17,10.15,4.1,19.53,4.34,22.76-2.82-1.31-5.51-2.91-8.03-4.78-.32-2.11-1.11-7.34-1.63-8.21-.03.21-.36,3.2-1.79,5.41-.35-.31-.69-.63-1.03-.95-1.96-4.67-7.44-19.59-3.31-32.33,0,0,0,0,0-.01,2.25-7.28,5.49-10.44,8.16-11.78,2.68-1.34,4.79-.87,4.79-.87,0,0-6.96,13.28-1.49,30.76ZM55.85,112.2c-1.72-.48-3.4-1.06-5.05-1.73,1.88-4.1,4.54-11.1,4.82-11.33,0,0,0,0,0,0,0,0,0,0,0,0,0,0,.01,0,.02.01.68,3.34,1.25,8.31.2,13.05ZM67.23,113.88c-.35-4.09-.68-12.38-1.1-13.82,0,0,0,0-.01,0-.83,1.58-2.73,5.67-4.29,7.82,0,0,0,0-.02,0-2.39-7.86-7.96-24.5-10.12-25.02,0,0,0,0-.01,0-.78,3.99-.55,12.31-1.04,11.45-10.5-18.24-1.38-39.25-.78-41.01,0,0,0,0,0,0-10.27-19.15,3.92-18.43,9.6-11.65,0,0,0,0,.01,0,.53-.31,1.07-.6,1.63-.86,0,0,0-.01,0-.02-11.74-12.99-23.07-3.82-13.9,12.77,0,0,0,0,0,0-1.13-.22-16.54-.59-25.05,9.95.5-5.83,2.07-11.44,4.63-16.59,2.63-1.39,10-5.2,11.52-6.03-.43.07-2.4.3-2.93.39-1.66.29-4.41.76-5.95,1.02,1.76-2.7,3.81-5.24,6.14-7.58,4.82-4.82,10.52-8.45,16.74-10.74,8.46,1.52,15.26,6.82,15.77,7.23,0,0,0,0,.01-.01-2.21-4.73-6.23-7-10.63-8.77,1.86-.45,3.75-.78,5.67-.99.57.06,1.23.12,1.69.18,9.7,1.27,16.1,6.82,18.43,13.67.18.51,1.16-.31-.03-3.03-.12-.28-.92-1.94-.9-3.06.88,1.01,7.51,3.38,4.52,13.85-.08.29-.1.59.18.79,1.72.67,3.33,5.15,3.33,7.84,0,0-.21,1.76,1.16,2.88,2.58,2.11,9.24,7.43,12.33,10.73,0,0,0,0,0,0,.64.64,1.07,1.19,1.36,1.62,1.13,1.76-.35,3.3-1.65,4.59-.13.13-.27.27-.4.4-.03.03-.04.03-.05.02-.74-.73-2.78-2.74-3.67-3.61-.64-.63-.43-.92.14-1.45.37-.37.74-.15,1.03.19.3.28.56.51.88.81.23.22.6.59.8.78.24.29.74.43,1.01.12.12-.13.27-.27.38-.39.24-.29.08-.74-.2-.96-.35-.34-1.25-1.21-1.26-1.23-9.8-10.02-16.4-13.34-16.4-13.34-3.12-1.25-4.26-.84-6.06-.52-2.43.44-3.52.99-7.19-.62.03.46.24,1.36,2.05,2.96,0,0,0,.01,0,.02-.21.07-1.92.51-2.12.99.49.17,2.7.8,3.31,1.01.31.11.25.61-.14.95-20.49,17.99,12.29,39.61,16.13,43.03l.3.29.05-.1c1.12-2.11-2.2-13.33-1.74-13.52,6.76-2.8,11.56-8.64,11.56-8.65,0,0,0,0,0,0,1.76,1.93,1.5,5.25,1,5.94,0,0,0,.01-.01.02,0,0,0,0,0,0-.29.33-2.01-1.43-2.21-1.26,0,0,0,0,0,0-.19.26,1.14,4.31.42,4.83-.47.34-2.73-1.93-2.86-1.98,0,0,0,0,0,0-.11.45,1.51,6.08.78,7.15-.36.53-4.91-1.75-5.18-1.9,0,0,0,0,0,0,.19.89,3.25,8.65,1.91,13.47-5.8,4.27-12.47,7.11-19.57,8.31l-.82-5.39-2.01,5.78c-1.66.18-3.34.27-5.03.27-.38,0-.76,0-1.14-.01ZM90.91,74.29c-1.47.54-2.68,1.1-4.2,1.71-1.12.47-2.16.91-3.3,1.36-.23.07-.51.25-.75.24-.07-.03-.03-.12,0-.18.27-.48.57-.96.84-1.42.23-.38.49-.81.76-1.27.04-.06.07-.12.11-.18.32-.53.65-1.08.98-1.64.14-.24.28-.47.43-.71.85-1.42,1.69-2.82,2.51-4.22-.79.25-7.92,2.57-9.53,3.02-1.12.32-1.18-.49-1.32-1.05-1.01-4.05.53-7.13,3.61-8.72.21-.11.42-.21.64-.3,5.57-2.35,14.27.31,14.14,6.94l5.63,5.62-2.87,2.29c-1.78,1.45-3.65,2.96-5.47,4.4-.48.36-.88.81-1.49.92-1.07.18-2.22.13-3.32.12-.37,0-.71-.02-1.06-.04-.08,0-.18,0-.23-.05-.03-.04,0-.09.03-.14.68-1.23,1.39-2.42,2.09-3.61.26-.44.51-.86.74-1.26.33-.56.62-1.06.92-1.59.02-.06.15-.21.11-.25ZM79.02,54.5v-.03c.13-.23.54-.28.87-.34.85-.13,1.73-.1,2.55.16.95.24.93.77.52,1.51-.56.95-1.97,1.44-2.96.84-.68-.42-1.12-1.38-.98-2.15Z"/>
    </g>
  </g>
</svg>